<svg id="Layer_1" data-name="Layer 1" xmlns="http://www.w3.org/2000/svg" viewBox="0 0 369.21 195.2"><defs><style>.cls-1,.cls-16,.cls-2,.cls-3,.cls-4,.cls-7{fill:none;}.cls-1{stroke:#ebebeb;stroke-dasharray:1 1;}.cls-1,.cls-2,.cls-3,.cls-4,.cls-6,.cls-7{stroke-linejoin:round;}.cls-2,.cls-3{stroke:#ff8c00;}.cls-2,.cls-4{stroke-width:1.5px;}.cls-3{stroke-width:0.5px;stroke-dasharray:2 1;}.cls-4{stroke:#5584ff;}.cls-5,.cls-8{font-size:7px;}.cls-12,.cls-13,.cls-14,.cls-15,.cls-5,.cls-8,.cls-9{font-family:Helvetica;}.cls-6,.cls-7{stroke:#333;}.cls-7{stroke-width:1.07px;}.cls-8{fill:#4d4d4d;}.cls-13,.cls-9{font-size:6px;}.cls-10{letter-spacing:-0.02em;}.cls-11{letter-spacing:-0.07em;}.cls-12,.cls-14,.cls-15{font-size:8px;}.cls-12,.cls-13{fill:#ff8c00;}.cls-14{fill:#5584ff;}.cls-16{stroke:#000;stroke-miterlimit:10;stroke-width:0.25px;}</style></defs><line class="cls-1" y1="150.42" x2="354.04" y2="150.42"/><line class="cls-1" y1="119.1" x2="354.04" y2="119.1"/><line class="cls-1" y1="87.78" x2="354.04" y2="87.78"/><line class="cls-1" y1="56.47" x2="354.04" y2="56.47"/><line class="cls-1" y1="25.15" x2="354.04" y2="25.15"/><polyline class="cls-2" points="19.87 139.98 29.53 142.07 39.19 142.07 48.85 143.11 58.5 143.11 68.16 144.15 77.82 144.15 87.48 143.11 97.14 145.2 106.79 144.15 116.45 144.15 126.11 144.15 135.77 145.2 145.43 145.2 155.08 135.8 164.74 27.24 174.4 42.9 184.06 65.86 193.72 75.26 203.37 94.05 213.03 100.31 222.69 109.71 232.35 111.79 242.01 111.79 251.67 115.97 261.32 117.01 270.98 119.1 280.64 118.06 290.3 121.19 299.96 120.14 309.61 125.36 319.27 127.45 328.93 131.63 338.59 133.71 348.25 137.89"/><polyline class="cls-3" points="19.87 145.2 29.53 148.33 39.19 147.29 48.85 148.33 58.5 147.29 68.16 147.29 77.82 147.29 87.48 146.24 97.14 148.33 106.79 147.29 116.45 147.29 126.11 149.37 135.77 150.42 145.43 150.42 155.08 141.02 164.74 34.55 174.4 53.34 184.06 76.3 193.72 85.7 203.37 104.49 213.03 108.66 222.69 119.1 232.35 120.14 242.01 119.1 251.67 122.23 261.32 123.28 270.98 125.36 280.64 126.41 290.3 128.5 299.96 127.45 309.61 131.63 319.27 134.76 328.93 137.89 338.59 139.98 348.25 143.11"/><polyline class="cls-3" points="19.87 109.71 29.53 108.66 39.19 113.88 48.85 112.84 58.5 118.06 68.16 119.1 77.82 123.28 87.48 127.45 97.14 125.36 106.79 123.28 116.45 122.23 126.11 117.01 135.77 118.06 145.43 119.1 155.08 110.75 164.74 7.41 174.4 7.41 184.06 22.02 193.72 31.42 203.37 48.12 213.03 56.47 222.69 68.99 232.35 74.21 242.01 78.39 251.67 85.7 261.32 78.39 270.98 81.52 280.64 80.48 290.3 86.74 299.96 85.7 309.61 96.14 319.27 89.87 328.93 99.27 338.59 99.27 348.25 111.79"/><polyline class="cls-4" points="19.87 137.89 29.53 138.93 39.19 138.93 48.85 138.93 58.5 138.93 68.16 138.93 77.82 138.93 87.48 138.93 97.14 138.93 106.79 139.98 116.45 139.98 126.11 139.98 135.77 139.98 145.43 138.93 155.08 138.93 164.74 9.49 174.4 50.2 184.06 128.5 193.72 122.23 203.37 127.45 213.03 128.5 222.69 130.58 232.35 130.58 242.01 130.58 251.67 131.63 261.32 132.67 270.98 132.67 280.64 132.67 290.3 132.67 299.96 131.63 309.61 131.63 319.27 131.63 328.93 132.67 338.59 133.71 348.25 133.71"/><text class="cls-5" transform="translate(0.14 148.65)">3%</text><text class="cls-5" transform="translate(0.14 117.33)">6%</text><text class="cls-5" transform="translate(0.14 86.02)">9%</text><text class="cls-5" transform="translate(0.14 54.7)">12%</text><text class="cls-5" transform="translate(0.14 23.38)">15%</text><line class="cls-6" y1="181.73" x2="354.04" y2="181.73"/><line class="cls-7" x1="19.87" y1="184.19" x2="19.87" y2="181.45"/><line class="cls-7" x1="58.5" y1="184.19" x2="58.5" y2="181.45"/><line class="cls-7" x1="97.14" y1="184.19" x2="97.14" y2="181.45"/><line class="cls-7" x1="135.77" y1="184.19" x2="135.77" y2="181.45"/><line class="cls-7" x1="174.4" y1="184.19" x2="174.4" y2="181.45"/><line class="cls-7" x1="213.03" y1="184.19" x2="213.03" y2="181.45"/><line class="cls-7" x1="251.67" y1="184.19" x2="251.67" y2="181.45"/><line class="cls-7" x1="290.3" y1="184.19" x2="290.3" y2="181.45"/><line class="cls-7" x1="328.93" y1="184.19" x2="328.93" y2="181.45"/><text class="cls-8" transform="translate(10.24 191.84)">19−01</text><text class="cls-8" transform="translate(48.87 191.84)">19−05</text><text class="cls-8" transform="translate(87.5 191.84)">19−09</text><text class="cls-8" transform="translate(126.13 191.84)">20−01</text><text class="cls-8" transform="translate(164.76 191.84)">20−05</text><text class="cls-8" transform="translate(203.4 191.84)">20−09</text><text class="cls-8" transform="translate(242.03 191.84)">21−01</text><text class="cls-8" transform="translate(280.66 191.84)">21−05</text><text class="cls-8" transform="translate(319.29 191.84)">21−09</text><text class="cls-9" transform="translate(0.35 5.15)">UNEMPLOYMEN<tspan class="cls-10" x="47.01" y="0">T</tspan><tspan x="0" y="7.2">R</tspan><tspan class="cls-11" x="4.33" y="7.2">A</tspan><tspan x="7.89" y="7.2">TE</tspan></text><text class="cls-12" transform="translate(250.21 110.91)">Nationwide</text><text class="cls-13" transform="translate(58.5 114.27)">Nationwide Black</text><text class="cls-13" transform="translate(58.5 157.11)">Nationwide White</text><text class="cls-14" transform="translate(244.48 142.89)">Kentucky</text><text class="cls-15" transform="translate(156.98 160.73)">Short-term employment level bounced back rapidl<tspan class="cls-11" x="176.09" y="0">y</tspan><tspan x="179.5" y="0">, </tspan><tspan x="0" y="10">but structrual problem restrained further recovery</tspan></text><line class="cls-16" x1="216.84" y1="129.88" x2="213.03" y2="152.8"/></svg>